<svg id="Layer_1" xmlns="http://www.w3.org/2000/svg" width="279.8" height="47.9" viewBox="-280.8 477.1 279.8 47.9"><style>.st0{fill:#ED1F24;}</style><g id="ljs2"><path class="st0" d="M-262.7 520.3h-4.5v-20.7h-.5c-2.2 0-4-.7-5.3-2.2-1.4-1.5-2-3.4-2-5.7 0-5.4 3.1-8.2 9.4-8.2h14.9l-2.7 4.5h-1.3v32.2h-4.4V488h-3.6v32.3z"/><path d="M-227.7 483.6v27.6h9.5v4.5h-14.3v-32.1h4.8zm18.9 0v32.1h-4.8v-32.1h4.8zm16.6 4.6v27.6h-4.8v-27.6h-7.4v-4.6h19.6v4.6h-7.4zm29.4 0h-12.9v7.7h12.5v4.6h-12.5v10.7h12.9v4.5h-17.7v-32.1h17.7v4.6zm17.3 13.9l9.9 13.7h-5.9l-9.2-13.2h-.9v13.2h-4.8v-32.1h5.7c4.2 0 7.3.8 9.2 2.4 2.1 1.8 3.1 4.1 3.1 7 0 2.3-.6 4.2-2 5.9-1.3 1.6-3 2.6-5.1 3.1zm-6.1-3.6h1.5c4.6 0 6.9-1.8 6.9-5.3 0-3.3-2.2-4.9-6.7-4.9h-1.7v10.2zm39.7 9.5h-13.8l-3.6 7.8h-5.2l15.9-34.1 15.3 34.1h-5.3l-3.3-7.8zm-2-4.5l-4.8-10.9-5 10.9h9.8zm21.8-15.3v27.6h-4.8v-27.6h-7.4v-4.6h19.6v4.6h-7.4zm29.4 0h-12.9v7.7h12.5v4.6h-12.5v10.7h12.9v4.5h-17.7v-32.1h17.7v4.6zm29.3-4.6v20.8c0 2.5-.2 4.3-.5 5.6-.3 1.4-.9 2.6-1.8 3.5-1.6 1.9-3.8 2.8-6.5 2.8-2 0-3.9-.5-5.7-1.6l2.4-4.1c1.2.8 2.3 1.2 3.3 1.2 1.4 0 2.4-.5 3-1.6s.9-3 .9-5.7v-20.8h4.9v-.1zm25.8 4.9l-3.9 2.3c-.7-1.3-1.4-2.1-2.1-2.5-.7-.4-1.6-.7-2.7-.7-1.3 0-2.5.4-3.4 1.1-.9.7-1.3 1.7-1.3 2.8 0 1.6 1.2 2.8 3.5 3.8l3.2 1.3c2.6 1.1 4.5 2.3 5.7 3.9 1.2 1.5 1.8 3.4 1.8 5.6 0 3-1 5.4-3 7.3-2 1.9-4.4 2.9-7.4 2.9-2.8 0-5.1-.8-6.9-2.5-1.8-1.7-2.9-4-3.4-7l4.9-1.1c.2 1.9.6 3.2 1.2 3.9 1 1.4 2.5 2.1 4.4 2.1 1.5 0 2.8-.5 3.8-1.5s1.5-2.3 1.5-3.9c0-.6-.1-1.2-.3-1.7s-.4-1-.8-1.4c-.4-.4-.8-.9-1.4-1.2-.6-.4-1.3-.7-2.1-1.1l-3.1-1.3c-4.4-1.9-6.6-4.6-6.6-8.2 0-2.4.9-4.4 2.8-6 1.8-1.6 4.1-2.5 6.9-2.5 3.8.2 6.7 2 8.7 5.6z"/></g></svg>